<?xml version="1.0" encoding="utf-8"?>
<!-- Generator: Adobe Illustrator 18.0.0, SVG Export Plug-In . SVG Version: 6.00 Build 0)  -->
<!DOCTYPE svg PUBLIC "-//W3C//DTD SVG 1.1//EN" "http://www.w3.org/Graphics/SVG/1.1/DTD/svg11.dtd">
<svg version="1.1" id="Isolation_Mode" xmlns="http://www.w3.org/2000/svg" xmlns:xlink="http://www.w3.org/1999/xlink" x="0px"
	 y="0px" viewBox="0 128.2 612 535.5" enable-background="new 0 128.2 612 535.5" xml:space="preserve">
<path fill="#ADA599" d="M153.9,205.9v-38c0-20.9,17.1-38,38-38s38,17.1,38,38v38c0,20.9-17.1,38-38,38S153.9,226.8,153.9,205.9z
	 M420.1,243.9c20.9,0,38-17.1,38-38v-38c0-20.9-17.1-38-38-38s-38,17.1-38,38v38C382,226.8,399.1,243.9,420.1,243.9z M572.1,662.1
	H39.9V205.9h95c0,32.3,24.7,57,57,57s57-24.7,57-57H363c0,32.3,24.7,57,57,57s57-24.7,57-57h95V662.1L572.1,662.1z M534.1,320H77.9
	v304.2h456.2V320L534.1,320z M230,358h-76v76h76V358z M344,358h-76v76h76V358z M458.1,358h-76v76h76V358z M230,472h-76v76h76V472z
	 M344,472h-76v76h76V472z M458.1,472h-76v76h76V472z"/>
</svg>
